<svg width="367" height="60" viewBox="0 0 367 60" fill="none" xmlns="http://www.w3.org/2000/svg">
<path d="M96.72 53.408C91.776 53.36 88.848 49.52 89.088 44.48C80.304 44 74.4 36.944 74.4 27.872C74.4 18.608 80.688 11.36 89.952 11.36C99.264 11.36 105.504 18.608 105.504 27.872C105.504 36.608 100.08 43.52 91.776 44.384C91.92 48.032 94.08 49.52 96.48 49.52C99.984 49.52 101.472 46.928 102.432 44.576L104.736 49.424C103.296 51.296 100.704 53.456 96.72 53.408ZM90 40.496C97.344 40.496 101.184 35.264 101.184 27.872C101.184 20.576 97.344 15.296 90 15.296C82.656 15.296 78.816 20.576 78.816 27.872C78.816 35.264 82.656 40.496 90 40.496ZM115.543 44H111.367V11.84H125.383C131.671 11.84 136.327 15.296 136.327 21.728C136.327 26.864 132.823 30.128 127.879 30.8C129.367 31.28 130.567 32.288 131.575 34.064L137.335 44H132.439L126.775 34.112C125.575 31.952 123.847 31.184 120.679 31.184H115.543V44ZM124.711 15.536H115.543V27.68H124.711C128.551 27.68 132.007 26.288 132.007 21.728C132.007 16.928 128.551 15.536 124.711 15.536ZM164.38 44.384C155.788 44.384 151.228 37.616 151.228 27.872C151.228 18.464 156.508 11.36 166.204 11.36C172.924 11.36 177.772 14.768 179.932 20.864L176.188 23.312C175.084 18.752 171.916 15.296 166.252 15.296C158.956 15.296 155.644 20.528 155.644 27.872C155.644 35.216 158.86 40.448 165.82 40.448C172.012 40.448 174.46 36.992 175.66 31.568H165.82V27.872H180.028V44H177.436L176.14 31.568C175.9 38.72 171.772 44.384 164.38 44.384ZM196.244 44.48C189.668 44.48 185.108 39.776 185.108 32.384C185.108 25.04 189.62 20.288 196.004 20.288C202.58 20.288 206.564 24.656 206.564 31.472C206.564 32.192 206.468 32.912 206.372 33.344H189.14C189.38 38.24 192.116 41.024 196.244 41.024C200.9 41.024 202.772 38.48 203.684 36.464L206.228 39.344C204.5 42.128 201.284 44.48 196.244 44.48ZM196.004 23.792C192.26 23.792 189.764 26 189.236 30.32H202.82C202.388 26.048 199.892 23.792 196.004 23.792ZM216.032 44H211.855V20.768H216.032V26.96C216.944 23.36 219.44 20.288 224 20.288C228.56 20.288 231.392 23.024 231.392 27.968V44H227.264V28.976C227.264 25.952 226.064 23.84 222.128 23.84C217.664 23.84 216.032 26.96 216.032 30.848V44ZM247.384 44.48C240.808 44.48 236.248 39.776 236.248 32.384C236.248 25.04 240.76 20.288 247.144 20.288C253.72 20.288 257.704 24.656 257.704 31.472C257.704 32.192 257.608 32.912 257.512 33.344H240.28C240.52 38.24 243.256 41.024 247.384 41.024C252.04 41.024 253.912 38.48 254.824 36.464L257.368 39.344C255.64 42.128 252.424 44.48 247.384 44.48ZM247.144 23.792C243.4 23.792 240.904 26 240.376 30.32H253.96C253.528 26.048 251.032 23.792 247.144 23.792ZM267.172 44H262.996V20.768H267.172V26.96C268.084 23.36 270.484 20.24 274.42 20.24C276.916 20.24 279.316 22.016 279.316 25.28C279.316 27.248 278.788 28.688 278.404 29.264H273.844C274.612 28.592 275.236 27.152 275.236 25.856C275.236 24.512 274.516 23.36 272.836 23.36C269.86 23.36 267.172 26.864 267.172 30.848V44ZM287.812 44.48C283.876 44.48 281.668 42.224 281.668 39.152C281.668 36.032 284.02 34.064 287.332 32.576L295.732 28.832C295.588 26.096 294.292 24.08 290.644 24.08C287.332 24.08 285.124 26 283.924 28.544L281.092 25.616C282.484 23.216 285.94 20.288 291.124 20.288C296.836 20.288 299.908 23.696 299.908 29.216V38.768C299.908 39.872 300.34 40.208 301.204 40.208H302.692V44H300.004C297.604 44 295.876 42.848 295.876 39.584V37.952C295.108 41.024 292.612 44.48 287.812 44.48ZM285.892 38.48C285.892 40.064 286.996 41.024 289.156 41.024C293.092 41.024 295.876 38.432 295.876 35.072V31.856L289.108 35.024C286.9 36.08 285.892 37.04 285.892 38.48ZM314.647 44.528C310.855 44.528 308.167 42.032 308.167 38.048V24.032H304.423V20.768H308.167V17.792L312.343 14.72V20.768H319.975V24.032H312.343V36.8C312.343 39.776 313.735 40.496 315.559 40.496C317.623 40.496 319.063 38.768 319.687 37.328L321.079 41.456C320.071 43.04 317.863 44.528 314.647 44.528ZM332.871 44.48C326.439 44.48 321.927 39.728 321.927 32.384C321.927 25.04 326.439 20.288 332.871 20.288C339.303 20.288 343.863 25.04 343.863 32.384C343.863 39.728 339.303 44.48 332.871 44.48ZM332.871 40.976C336.855 40.976 339.639 38.24 339.639 32.384C339.639 26.48 336.855 23.792 332.871 23.792C328.935 23.792 326.199 26.48 326.199 32.384C326.199 38.24 328.935 40.976 332.871 40.976ZM353.282 44H349.105V20.768H353.282V26.96C354.194 23.36 356.594 20.24 360.53 20.24C363.026 20.24 365.426 22.016 365.426 25.28C365.426 27.248 364.898 28.688 364.514 29.264H359.954C360.722 28.592 361.346 27.152 361.346 25.856C361.346 24.512 360.626 23.36 358.946 23.36C355.97 23.36 353.282 26.864 353.282 30.848V44Z" fill="black"/>
<rect x="1.5942" y="4.5942" width="22.3188" height="22.3188" rx="3.18841" stroke="black" stroke-width="3.18841"/>
<mask id="path-3-inside-1_7_2" fill="white">
<rect x="6.37683" y="9.37681" width="12.7536" height="12.7536" rx="2.3913"/>
</mask>
<rect x="6.37683" y="9.37681" width="12.7536" height="12.7536" rx="2.3913" fill="black" stroke="black" stroke-width="6.37681" mask="url(#path-3-inside-1_7_2)"/>
<rect x="31.0869" y="4.5942" width="22.3188" height="22.3188" rx="3.18841" stroke="black" stroke-width="3.18841"/>
<mask id="path-5-inside-2_7_2" fill="white">
<rect x="35.8696" y="9.37681" width="12.7536" height="12.7536" rx="2.3913"/>
</mask>
<rect x="35.8696" y="9.37681" width="12.7536" height="12.7536" rx="2.3913" fill="black" stroke="black" stroke-width="6.37681" mask="url(#path-5-inside-2_7_2)"/>
<rect x="1.5942" y="34.087" width="22.3188" height="22.3188" rx="3.18841" stroke="black" stroke-width="3.18841"/>
<mask id="path-7-inside-3_7_2" fill="white">
<rect x="6.37683" y="38.8696" width="12.7536" height="12.7536" rx="2.3913"/>
</mask>
<rect x="6.37683" y="38.8696" width="12.7536" height="12.7536" rx="2.3913" fill="black" stroke="black" stroke-width="6.37681" mask="url(#path-7-inside-3_7_2)"/>
</svg>
