<svg width="61" height="61" viewBox="0 0 61 61" fill="none" xmlns="http://www.w3.org/2000/svg">
<rect x="1.5" y="1.5" width="28" height="58" rx="6.28261" fill="white" stroke="white" stroke-width="3"/>
<rect x="1.5" y="29.5" width="28" height="58" rx="6.28261" transform="rotate(-90 1.5 29.5)" fill="white" stroke="white" stroke-width="3"/>
<rect x="4.5942" y="4.5942" width="22.3188" height="22.3188" rx="3.18841" stroke="black" stroke-width="3.18841"/>
<mask id="path-4-inside-1_11_3" fill="white">
<rect x="9.37683" y="9.3768" width="12.7536" height="12.7536" rx="2.3913"/>
</mask>
<rect x="9.37683" y="9.3768" width="12.7536" height="12.7536" rx="2.3913" fill="black" stroke="black" stroke-width="6.37681" mask="url(#path-4-inside-1_11_3)"/>
<rect x="34.087" y="4.5942" width="22.3188" height="22.3188" rx="3.18841" stroke="black" stroke-width="3.18841"/>
<mask id="path-6-inside-2_11_3" fill="white">
<rect x="38.8696" y="9.3768" width="12.7536" height="12.7536" rx="2.3913"/>
</mask>
<rect x="38.8696" y="9.3768" width="12.7536" height="12.7536" rx="2.3913" fill="black" stroke="black" stroke-width="6.37681" mask="url(#path-6-inside-2_11_3)"/>
<rect x="4.5942" y="34.087" width="22.3188" height="22.3188" rx="3.18841" stroke="black" stroke-width="3.18841"/>
<mask id="path-8-inside-3_11_3" fill="white">
<rect x="9.37683" y="38.8696" width="12.7536" height="12.7536" rx="2.3913"/>
</mask>
<rect x="9.37683" y="38.8696" width="12.7536" height="12.7536" rx="2.3913" fill="black" stroke="black" stroke-width="6.37681" mask="url(#path-8-inside-3_11_3)"/>
</svg>
